<?xml version="1.0" standalone="no"?>
<!DOCTYPE svg PUBLIC "-//W3C//DTD SVG 20010904//EN"
 "http://www.w3.org/TR/2001/REC-SVG-20010904/DTD/svg10.dtd">
<svg version="1.0" xmlns="http://www.w3.org/2000/svg"
 width="274.000000pt" height="274.000000pt" viewBox="0 0 274.000000 274.000000"
 preserveAspectRatio="xMidYMid meet">
<metadata>
Created by potrace 1.14, written by Peter Selinger 2001-2017
</metadata>
<g transform="translate(0.000000,274.000000) scale(0.100000,-0.100000)"
fill="#000000" stroke="none">
<path d="M1353 2647 c-4 -7 -8 -16 -9 -22 -7 -30 -56 -263 -60 -277 -9 -38
-13 -57 -18 -89 -3 -19 -10 -49 -15 -67 -5 -18 -10 -35 -10 -37 0 -3 -3 -19
-6 -36 l-7 -31 -20 34 c-11 18 -70 83 -132 143 -114 113 -154 171 -163 245
-14 105 -78 26 -72 -88 3 -61 18 -103 85 -240 39 -80 57 -129 61 -169 5 -47 4
-55 -8 -48 -37 23 -140 89 -296 191 -213 140 -208 137 -222 120 -9 -10 24 -67
144 -251 85 -131 153 -240 151 -242 -2 -2 -15 1 -30 7 -15 5 -98 9 -189 8
-176 -2 -231 9 -296 57 -31 22 -61 24 -61 4 0 -24 42 -89 77 -119 42 -37 129
-79 215 -104 31 -9 77 -25 102 -36 49 -21 108 -68 101 -81 -4 -6 -70 -21 -90
-20 -2 0 -19 -5 -37 -10 -18 -5 -46 -12 -63 -14 -16 -3 -104 -22 -195 -41 -91
-20 -171 -37 -178 -38 -39 -7 -33 -42 8 -50 14 -2 59 -12 100 -21 41 -9 86
-19 100 -21 14 -3 95 -20 180 -38 l155 -32 -31 -17 c-18 -9 -85 -70 -150 -135
-112 -111 -168 -151 -222 -159 -72 -11 -89 -37 -39 -61 74 -36 165 -20 323 57
122 61 144 69 202 75 40 4 47 -5 24 -35 -61 -81 -312 -481 -307 -489 3 -5 12
-10 19 -10 8 0 114 66 237 146 123 81 229 149 236 151 9 4 10 -3 3 -29 -6 -18
-9 -105 -9 -193 2 -174 -9 -228 -58 -293 -19 -26 -22 -36 -13 -47 17 -21 63
-1 115 51 54 53 64 71 115 220 44 128 80 198 106 208 21 8 21 8 27 -29 3 -16
8 -41 11 -55 3 -14 8 -36 10 -50 2 -14 9 -45 15 -70 5 -25 12 -56 15 -70 15
-77 58 -278 62 -292 10 -33 40 -21 49 19 2 10 27 132 57 271 49 237 54 252 67
230 8 -12 67 -75 131 -139 130 -128 174 -198 179 -285 1 -7 8 -15 17 -18 11
-4 20 5 31 32 36 84 22 156 -63 333 -44 92 -65 149 -67 177 0 23 1 44 5 47 3
3 108 -62 234 -145 268 -176 270 -178 286 -162 15 15 14 16 -140 252 -63 96
-126 192 -139 213 l-24 38 23 -12 c15 -8 83 -12 208 -13 180 -1 186 -2 240
-28 30 -15 62 -33 71 -39 9 -7 24 -9 33 -6 15 6 15 10 1 44 -34 82 -106 133
-260 183 -55 18 -120 43 -145 55 -46 23 -88 61 -78 71 3 3 126 30 274 61 295
61 314 66 314 87 0 14 -17 23 -62 32 -13 2 -34 6 -48 9 -41 9 -123 25 -155 31
-16 2 -38 7 -47 10 -9 3 -25 6 -35 8 -226 45 -224 44 -181 70 20 12 81 69 136
127 104 109 194 169 251 169 26 0 51 16 51 31 0 4 -20 15 -44 24 -81 31 -154
17 -317 -61 -94 -45 -157 -69 -190 -72 -27 -2 -49 -1 -49 4 0 7 65 109 252
392 37 57 68 110 68 117 0 28 -20 25 -77 -11 -61 -39 -290 -188 -358 -233 -71
-47 -68 -47 -59 -10 4 19 8 108 9 199 1 91 4 174 7 186 8 27 34 83 56 116 23
37 6 56 -35 39 -80 -33 -141 -124 -193 -286 -37 -115 -64 -169 -97 -190 -13
-9 -23 -13 -23 -11 0 3 -27 133 -60 289 -33 157 -60 287 -60 290 0 12 -30 15
-37 4z"/>
</g>
</svg>
